<svg width="1024" height="1024" viewBox="0 0 1024 1024" fill="none" xmlns="http://www.w3.org/2000/svg">
<g clip-path="url(#clip0_2893_26155)">
<path d="M0 512H1024V1024H0V512Z" fill="url(#paint0_linear_2893_26155)"/>
<path d="M0 512H1024V524H0V512Z" fill="url(#paint1_linear_2893_26155)"/>
<path d="M0 0H1024V512H0V0Z" fill="url(#paint2_linear_2893_26155)"/>
<path d="M0 0H1024V512H0V0Z" fill="black" fill-opacity="0.05"/>
<path d="M0 500H1024V512H0V500Z" fill="url(#paint3_linear_2893_26155)"/>
<g filter="url(#filter0_dddd_2893_26155)">
<circle cx="512" cy="512" r="448" fill="url(#paint4_linear_2893_26155)"/>
</g>
<circle cx="512" cy="512" r="400" fill="url(#paint5_linear_2893_26155)"/>
<g filter="url(#filter1_f_2893_26155)">
<circle cx="512" cy="512" r="400" stroke="url(#paint6_linear_2893_26155)" stroke-width="48"/>
</g>
<g filter="url(#filter2_ii_2893_26155)">
<circle cx="512" cy="512" r="352" fill="url(#paint7_linear_2893_26155)"/>
</g>
<g filter="url(#filter3_dd_2893_26155)">
<circle cx="512" cy="512" r="272" fill="url(#paint8_linear_2893_26155)"/>
</g>
<g filter="url(#filter4_ii_2893_26155)">
<circle cx="512" cy="512" r="128" fill="url(#paint9_linear_2893_26155)"/>
</g>
<path d="M448 371.2C448 353.278 448 344.317 451.488 337.472C454.556 331.451 459.451 326.556 465.472 323.488C472.317 320 481.278 320 499.2 320H524.8C542.722 320 551.683 320 558.528 323.488C564.549 326.556 569.444 331.451 572.512 337.472C576 344.317 576 353.278 576 371.2V521.74C576 524.037 576 525.186 575.704 526.244C575.442 527.181 575.011 528.062 574.432 528.845C573.779 529.728 572.872 530.433 571.058 531.843L552.99 545.896C548.564 549.339 546.351 551.06 545.554 553.153C544.856 554.987 544.856 557.013 545.554 558.847C546.351 560.94 548.564 562.661 552.99 566.104L571.058 580.157C572.872 581.567 573.779 582.272 574.432 583.155C575.011 583.938 575.442 584.819 575.704 585.756C576 586.814 576 587.963 576 590.26V652.8C576 670.722 576 679.683 572.512 686.528C569.444 692.549 564.549 697.444 558.528 700.512C551.683 704 542.722 704 524.8 704H499.2C481.278 704 472.317 704 465.472 700.512C459.451 697.444 454.556 692.549 451.488 686.528C448 679.683 448 670.722 448 652.8V502.26C448 499.963 448 498.814 448.296 497.756C448.558 496.819 448.989 495.938 449.568 495.155C450.221 494.272 451.128 493.567 452.942 492.157L471.01 478.104C475.436 474.661 477.649 472.94 478.446 470.847C479.144 469.013 479.144 466.987 478.446 465.153C477.649 463.06 475.436 461.339 471.01 457.896L452.942 443.843C451.128 442.433 450.221 441.728 449.568 440.845C448.989 440.062 448.558 439.181 448.296 438.244C448 437.186 448 436.037 448 433.74V371.2Z" fill="url(#paint10_linear_2893_26155)"/>
</g>
<defs>
<filter id="filter0_dddd_2893_26155" x="40" y="40" width="944" height="956" filterUnits="userSpaceOnUse" color-interpolation-filters="sRGB">
<feFlood flood-opacity="0" result="BackgroundImageFix"/>
<feColorMatrix in="SourceAlpha" type="matrix" values="0 0 0 0 0 0 0 0 0 0 0 0 0 0 0 0 0 0 127 0" result="hardAlpha"/>
<feMorphology radius="8" operator="erode" in="SourceAlpha" result="effect1_dropShadow_2893_26155"/>
<feOffset dy="16"/>
<feGaussianBlur stdDeviation="12"/>
<feComposite in2="hardAlpha" operator="out"/>
<feColorMatrix type="matrix" values="0 0 0 0 0 0 0 0 0 0.0426666 0 0 0 0 0.16 0 0 0 0.25 0"/>
<feBlend mode="normal" in2="BackgroundImageFix" result="effect1_dropShadow_2893_26155"/>
<feColorMatrix in="SourceAlpha" type="matrix" values="0 0 0 0 0 0 0 0 0 0 0 0 0 0 0 0 0 0 127 0" result="hardAlpha"/>
<feMorphology radius="4" operator="erode" in="SourceAlpha" result="effect2_dropShadow_2893_26155"/>
<feOffset dy="16"/>
<feGaussianBlur stdDeviation="12"/>
<feComposite in2="hardAlpha" operator="out"/>
<feColorMatrix type="matrix" values="0 0 0 0 0.0384 0 0 0 0 0.113493 0 0 0 0 0.32 0 0 0 0.14 0"/>
<feBlend mode="normal" in2="effect1_dropShadow_2893_26155" result="effect2_dropShadow_2893_26155"/>
<feColorMatrix in="SourceAlpha" type="matrix" values="0 0 0 0 0 0 0 0 0 0 0 0 0 0 0 0 0 0 127 0" result="hardAlpha"/>
<feMorphology radius="4" operator="erode" in="SourceAlpha" result="effect3_dropShadow_2893_26155"/>
<feOffset dy="4"/>
<feGaussianBlur stdDeviation="4"/>
<feComposite in2="hardAlpha" operator="out"/>
<feColorMatrix type="matrix" values="0 0 0 0 0.0128 0 0 0 0 0.0520533 0 0 0 0 0.16 0 0 0 0.12 0"/>
<feBlend mode="normal" in2="effect2_dropShadow_2893_26155" result="effect3_dropShadow_2893_26155"/>
<feColorMatrix in="SourceAlpha" type="matrix" values="0 0 0 0 0 0 0 0 0 0 0 0 0 0 0 0 0 0 127 0" result="hardAlpha"/>
<feOffset/>
<feGaussianBlur stdDeviation="12"/>
<feComposite in2="hardAlpha" operator="out"/>
<feColorMatrix type="matrix" values="0 0 0 0 0 0 0 0 0 0.0639999 0 0 0 0 0.24 0 0 0 0.52 0"/>
<feBlend mode="normal" in2="effect3_dropShadow_2893_26155" result="effect4_dropShadow_2893_26155"/>
<feBlend mode="normal" in="SourceGraphic" in2="effect4_dropShadow_2893_26155" result="shape"/>
</filter>
<filter id="filter1_f_2893_26155" x="80" y="80" width="864" height="864" filterUnits="userSpaceOnUse" color-interpolation-filters="sRGB">
<feFlood flood-opacity="0" result="BackgroundImageFix"/>
<feBlend mode="normal" in="SourceGraphic" in2="BackgroundImageFix" result="shape"/>
<feGaussianBlur stdDeviation="4" result="effect1_foregroundBlur_2893_26155"/>
</filter>
<filter id="filter2_ii_2893_26155" x="160" y="156" width="704" height="716" filterUnits="userSpaceOnUse" color-interpolation-filters="sRGB">
<feFlood flood-opacity="0" result="BackgroundImageFix"/>
<feBlend mode="normal" in="SourceGraphic" in2="BackgroundImageFix" result="shape"/>
<feColorMatrix in="SourceAlpha" type="matrix" values="0 0 0 0 0 0 0 0 0 0 0 0 0 0 0 0 0 0 127 0" result="hardAlpha"/>
<feOffset dy="8"/>
<feGaussianBlur stdDeviation="6"/>
<feComposite in2="hardAlpha" operator="arithmetic" k2="-1" k3="1"/>
<feColorMatrix type="matrix" values="0 0 0 0 0.0176 0 0 0 0 0.0739199 0 0 0 0 0.44 0 0 0 0.7 0"/>
<feBlend mode="normal" in2="shape" result="effect1_innerShadow_2893_26155"/>
<feColorMatrix in="SourceAlpha" type="matrix" values="0 0 0 0 0 0 0 0 0 0 0 0 0 0 0 0 0 0 127 0" result="hardAlpha"/>
<feOffset dy="-4"/>
<feGaussianBlur stdDeviation="12"/>
<feComposite in2="hardAlpha" operator="arithmetic" k2="-1" k3="1"/>
<feColorMatrix type="matrix" values="0 0 0 0 0.0816 0 0 0 0 0.221227 0 0 0 0 0.68 0 0 0 0.42 0"/>
<feBlend mode="normal" in2="effect1_innerShadow_2893_26155" result="effect2_innerShadow_2893_26155"/>
</filter>
<filter id="filter3_dd_2893_26155" x="208" y="208" width="608" height="608" filterUnits="userSpaceOnUse" color-interpolation-filters="sRGB">
<feFlood flood-opacity="0" result="BackgroundImageFix"/>
<feColorMatrix in="SourceAlpha" type="matrix" values="0 0 0 0 0 0 0 0 0 0 0 0 0 0 0 0 0 0 127 0" result="hardAlpha"/>
<feOffset dy="4"/>
<feGaussianBlur stdDeviation="4"/>
<feComposite in2="hardAlpha" operator="out"/>
<feColorMatrix type="matrix" values="0 0 0 0 0.036 0 0 0 0 0.1864 0 0 0 0 0.6 0 0 0 0.52 0"/>
<feBlend mode="normal" in2="BackgroundImageFix" result="effect1_dropShadow_2893_26155"/>
<feColorMatrix in="SourceAlpha" type="matrix" values="0 0 0 0 0 0 0 0 0 0 0 0 0 0 0 0 0 0 127 0" result="hardAlpha"/>
<feOffset/>
<feGaussianBlur stdDeviation="16"/>
<feComposite in2="hardAlpha" operator="out"/>
<feColorMatrix type="matrix" values="0 0 0 0 0 0 0 0 0 0.122667 0 0 0 0 0.46 0 0 0 0.28 0"/>
<feBlend mode="normal" in2="effect1_dropShadow_2893_26155" result="effect2_dropShadow_2893_26155"/>
<feBlend mode="normal" in="SourceGraphic" in2="effect2_dropShadow_2893_26155" result="shape"/>
</filter>
<filter id="filter4_ii_2893_26155" x="384" y="384" width="256" height="304" filterUnits="userSpaceOnUse" color-interpolation-filters="sRGB">
<feFlood flood-opacity="0" result="BackgroundImageFix"/>
<feBlend mode="normal" in="SourceGraphic" in2="BackgroundImageFix" result="shape"/>
<feColorMatrix in="SourceAlpha" type="matrix" values="0 0 0 0 0 0 0 0 0 0 0 0 0 0 0 0 0 0 127 0" result="hardAlpha"/>
<feOffset dy="48"/>
<feGaussianBlur stdDeviation="24"/>
<feComposite in2="hardAlpha" operator="arithmetic" k2="-1" k3="1"/>
<feColorMatrix type="matrix" values="0 0 0 0 0.00560001 0 0 0 0 0.0787733 0 0 0 0 0.28 0 0 0 0.12 0"/>
<feBlend mode="normal" in2="shape" result="effect1_innerShadow_2893_26155"/>
<feColorMatrix in="SourceAlpha" type="matrix" values="0 0 0 0 0 0 0 0 0 0 0 0 0 0 0 0 0 0 127 0" result="hardAlpha"/>
<feOffset dy="2"/>
<feGaussianBlur stdDeviation="3"/>
<feComposite in2="hardAlpha" operator="arithmetic" k2="-1" k3="1"/>
<feColorMatrix type="matrix" values="0 0 0 0 0 0 0 0 0 0.165333 0 0 0 0 0.62 0 0 0 0.2 0"/>
<feBlend mode="normal" in2="effect1_innerShadow_2893_26155" result="effect2_innerShadow_2893_26155"/>
</filter>
<linearGradient id="paint0_linear_2893_26155" x1="512" y1="512" x2="512" y2="1024" gradientUnits="userSpaceOnUse">
<stop stop-color="#C4C9D9"/>
<stop offset="1" stop-color="#AEB6CC"/>
</linearGradient>
<linearGradient id="paint1_linear_2893_26155" x1="512" y1="512" x2="512" y2="524" gradientUnits="userSpaceOnUse">
<stop stop-color="#D3D8E6"/>
<stop offset="1" stop-color="#D3D8E6" stop-opacity="0"/>
</linearGradient>
<linearGradient id="paint2_linear_2893_26155" x1="512" y1="0" x2="512" y2="512" gradientUnits="userSpaceOnUse">
<stop stop-color="#D3D7E0"/>
<stop offset="1" stop-color="#C4CAD9"/>
</linearGradient>
<linearGradient id="paint3_linear_2893_26155" x1="512" y1="500" x2="512" y2="512" gradientUnits="userSpaceOnUse">
<stop stop-color="#9AA2B8" stop-opacity="0"/>
<stop offset="1" stop-color="#9AA2B8"/>
</linearGradient>
<linearGradient id="paint4_linear_2893_26155" x1="512" y1="64" x2="512" y2="960" gradientUnits="userSpaceOnUse">
<stop stop-color="#F7F8FA"/>
<stop offset="0.7" stop-color="#A7B4D6"/>
</linearGradient>
<linearGradient id="paint5_linear_2893_26155" x1="512" y1="112" x2="512" y2="912" gradientUnits="userSpaceOnUse">
<stop stop-color="#537AE6"/>
<stop offset="0.7" stop-color="#7FAAF4"/>
<stop offset="1" stop-color="#D7E5FA"/>
</linearGradient>
<linearGradient id="paint6_linear_2893_26155" x1="512" y1="112" x2="512" y2="912" gradientUnits="userSpaceOnUse">
<stop stop-color="#FCFCFC"/>
<stop offset="1" stop-color="#F5F8FF"/>
</linearGradient>
<linearGradient id="paint7_linear_2893_26155" x1="512" y1="160" x2="512" y2="864" gradientUnits="userSpaceOnUse">
<stop stop-color="#1D48F5"/>
<stop offset="1" stop-color="#499FF5"/>
</linearGradient>
<linearGradient id="paint8_linear_2893_26155" x1="512" y1="240" x2="512" y2="784" gradientUnits="userSpaceOnUse">
<stop stop-color="#FCFCFC"/>
<stop offset="1" stop-color="#D7DFF5"/>
</linearGradient>
<linearGradient id="paint9_linear_2893_26155" x1="512" y1="384" x2="512" y2="640" gradientUnits="userSpaceOnUse">
<stop stop-color="#DCE4FA"/>
<stop offset="1" stop-color="white"/>
</linearGradient>
<linearGradient id="paint10_linear_2893_26155" x1="512" y1="320" x2="512" y2="704" gradientUnits="userSpaceOnUse">
<stop stop-color="#151729"/>
<stop offset="1" stop-color="#1B1C33"/>
</linearGradient>
<clipPath id="clip0_2893_26155">
<rect width="1024" height="1024" rx="236" fill="white"/>
</clipPath>
</defs>
</svg>
