<svg width="421" height="852" viewBox="0 0 421 852" fill="none" xmlns="http://www.w3.org/2000/svg">
<rect width="415" height="852" transform="translate(3)" fill="black" fill-opacity="0.01"/>
<path d="M334 0C344.871 -1.00067e-08 354.227 -0.0156002 361.9 0.611328C369.807 1.25735 377.672 2.68416 385.239 6.54004C396.529 12.2924 405.708 21.4711 411.46 32.7607C415.316 40.3283 416.743 48.1927 417.389 56.0996C418.016 63.773 418 73.1291 418 84V196C419.657 196 421 197.317 421 198.94V291.06C421 292.683 419.657 294 418 294V768C418 778.871 418.016 788.227 417.389 795.9C416.743 803.807 415.316 811.672 411.46 819.239C405.708 830.529 396.529 839.708 385.239 845.46C377.672 849.316 369.807 850.743 361.9 851.389C354.227 852.016 344.871 852 334 852H87C76.1291 852 66.773 852.016 59.0996 851.389C51.1927 850.743 43.3283 849.316 35.7607 845.46C24.4711 839.708 15.2924 830.529 9.54004 819.239C5.68417 811.672 4.25735 803.807 3.61133 795.9C2.9844 788.227 3 778.871 3 768V315.556C1.34328 315.556 0.000212051 314.231 0 312.598V256.389C0.000144803 254.755 1.34324 253.431 3 253.431V237.652C1.34315 237.652 0 236.328 0 234.694V178.486C0 176.852 1.34315 175.527 3 175.527V148.902C1.34315 148.902 0 147.578 0 145.944V118.333C0.000195713 116.699 1.34327 115.375 3 115.375V84C3 73.1291 2.9844 63.773 3.61133 56.0996C4.25735 48.1927 5.68416 40.3283 9.54004 32.7607C15.2924 21.4711 24.4711 12.2924 35.7607 6.54004C43.3283 2.68416 51.1927 1.25735 59.0996 0.611328C66.773 -0.0156008 76.1291 -5.47472e-09 87 0H334ZM79.1074 20.0088C61.8393 20.0684 52.3276 20.5448 44.8408 24.3594L44.1387 24.7256C36.9335 28.5782 31.0745 34.5496 27.3594 41.8408L26.9639 42.6504C23.0001 51.1077 23 62.2978 23 84V768C23 790.402 22.9999 801.603 27.3594 810.159C31.1943 817.686 37.3143 823.806 44.8408 827.641C53.3972 832 64.5983 832 87 832H334C355.702 832 366.892 832 375.35 828.036L376.159 827.641C383.45 823.926 389.422 818.067 393.274 810.861L393.641 810.159C398 801.603 398 790.402 398 768V84C398 62.2978 398 51.1077 394.036 42.6504L393.641 41.8408C389.806 34.3144 383.686 28.1943 376.159 24.3594C368.672 20.5449 359.161 20.0684 341.893 20.0088L334 20H322.401C314.735 20 314.734 24.3857 314.734 29.0078C314.734 38.28 307.666 50.0243 291.401 50.0244H129.401C113.137 50.0244 106.068 38.2797 106.068 28.6738C106.068 24.3853 106.068 20.0001 98.4014 20H87L79.1074 20.0088Z" fill="black"/>
</svg>
