<svg width="239" height="239" viewBox="0 0 239 239" fill="none" xmlns="http://www.w3.org/2000/svg">
<path fill-rule="evenodd" clip-rule="evenodd" d="M239 119.5C239 53.5028 185.497 0 119.5 0C53.5028 0 0 53.5028 0 119.5C0 185.501 53.5028 239 119.5 239C185.497 239 239 185.501 239 119.5ZM97.7496 53.111C96.8101 54.9549 96.8101 57.3686 96.8101 62.1961V89.5564C96.8101 90.7623 96.8101 91.3652 96.9623 91.9227C97.0972 92.4165 97.319 92.8824 97.6173 93.2985C97.9539 93.7682 98.4219 94.1483 99.3579 94.9086L106.279 100.531C107.407 101.447 107.971 101.905 108.176 102.457C108.355 102.941 108.355 103.473 108.176 103.957C107.971 104.509 107.407 104.967 106.279 105.883L99.3579 111.505C98.4219 112.266 97.954 112.646 97.6173 113.115C97.319 113.531 97.0972 113.997 96.9623 114.491C96.8101 115.049 96.8101 115.652 96.8101 116.858V176.803C96.8101 181.63 96.8101 184.044 97.7496 185.888C98.576 187.51 99.8946 188.829 101.517 189.655C103.36 190.594 105.774 190.594 110.602 190.594H128.398C133.226 190.594 135.64 190.594 137.483 189.655C139.105 188.829 140.424 187.51 141.25 185.888C142.19 184.044 142.19 181.63 142.19 176.803V149.443C142.19 148.237 142.19 147.634 142.038 147.076C141.903 146.583 141.681 146.117 141.383 145.701C141.046 145.231 140.578 144.851 139.642 144.09L132.721 138.468C131.593 137.552 131.029 137.094 130.824 136.542C130.645 136.058 130.645 135.526 130.824 135.042C131.029 134.491 131.593 134.032 132.721 133.116L139.642 127.494C140.578 126.734 141.046 126.353 141.383 125.884C141.681 125.468 141.903 125.002 142.038 124.508C142.19 123.95 142.19 123.347 142.19 122.142V62.1961C142.19 57.3686 142.19 54.9549 141.25 53.111C140.424 51.4892 139.105 50.1705 137.483 49.3441C135.64 48.4046 133.226 48.4046 128.398 48.4046H110.602C105.774 48.4046 103.36 48.4046 101.517 49.3441C99.8946 50.1705 98.576 51.4892 97.7496 53.111Z" fill="#FFFEFB"/>
</svg>
