<svg xmlns="http://www.w3.org/2000/svg" viewBox="0 0 24 24" fill="#F22F46"><path d="M12 0C5.381 0 0 5.381 0 12s5.381 12 12 12 12-5.381 12-12S18.619 0 12 0zm0 20.797c-4.857 0-8.797-3.94-8.797-8.797S7.143 3.203 12 3.203s8.797 3.94 8.797 8.797-3.94 8.797-8.797 8.797zm4.034-12.56a2.326 2.326 0 1 1-4.652 0 2.326 2.326 0 0 1 4.652 0zm-5.382 0a2.326 2.326 0 1 1-4.653 0 2.326 2.326 0 0 1 4.653 0zm5.382 5.417a2.326 2.326 0 1 1-4.652 0 2.326 2.326 0 0 1 4.652 0zm-5.382 0a2.326 2.326 0 1 1-4.653 0 2.326 2.326 0 0 1 4.653 0z"/></svg>
